<svg id="Layer_1" data-name="Layer 1" xmlns="http://www.w3.org/2000/svg" viewBox="0 0 1189.85 364.37"><defs><style>.cls-1{opacity:0.67;}.cls-2,.cls-4{fill-rule:evenodd;}.cls-3,.cls-4{fill:#a3917f;}</style></defs><title>logo-yazd-2</title><g class="cls-1"><circle cx="393.3" cy="56.06" r="41.02" transform="translate(75.55 294.53) rotate(-45)"/><circle cx="275.27" cy="56.06" r="41.02" transform="translate(40.98 211.06) rotate(-45)"/><circle cx="189.51" cy="56.06" r="41.02" transform="translate(15.86 150.42) rotate(-45)"/></g><g class="cls-1"><path class="cls-2" d="M811.45,308.93a25.57,25.57,0,0,1,12.83,3,19.61,19.61,0,0,1,8.12,8.62,29.33,29.33,0,0,1,2.75,13.13,31.62,31.62,0,0,1-1.51,10.13,22,22,0,0,1-4.52,7.9,20,20,0,0,1-7.41,5.12,27,27,0,0,1-10.06,1.77,26.24,26.24,0,0,1-10.1-1.83,19.89,19.89,0,0,1-7.44-5.13,21.89,21.89,0,0,1-4.51-8,32.12,32.12,0,0,1-1.53-10.07,31.06,31.06,0,0,1,1.59-10.16,21.82,21.82,0,0,1,4.62-7.87,19.72,19.72,0,0,1,7.34-5,26.19,26.19,0,0,1,9.83-1.72Zm13.83,24.71a22.78,22.78,0,0,0-1.7-9.15,12.84,12.84,0,0,0-4.87-5.86,13.39,13.39,0,0,0-7.26-2,13.17,13.17,0,0,0-5.39,1.1,11.86,11.86,0,0,0-4.26,3.2,15.34,15.34,0,0,0-2.82,5.36,24.25,24.25,0,0,0-1,7.33,24.84,24.84,0,0,0,1,7.42,15.21,15.21,0,0,0,2.92,5.5,12.35,12.35,0,0,0,4.32,3.26,13.67,13.67,0,0,0,12.23-.79,13,13,0,0,0,5-5.77A22.3,22.3,0,0,0,825.28,333.64Z"/><path class="cls-2" d="M763.65,317.79H753v34.9a6.37,6.37,0,0,1-1.36,4.48,4.53,4.53,0,0,1-3.48,1.46,4.62,4.62,0,0,1-3.53-1.48,6.4,6.4,0,0,1-1.37-4.46v-34.9H732.67A5.43,5.43,0,0,1,729,316.7a3.81,3.81,0,0,1-1.22-2.93,3.73,3.73,0,0,1,1.27-3,5.42,5.42,0,0,1,3.66-1.09h31a5.41,5.41,0,0,1,3.76,1.12,4.07,4.07,0,0,1,0,5.85A5.58,5.58,0,0,1,763.65,317.79Z"/><path class="cls-2" d="M677.31,314.77,696,343.11V314.5a6.28,6.28,0,0,1,1.2-4.17,4,4,0,0,1,3.22-1.4,4.16,4.16,0,0,1,3.31,1.39,6.25,6.25,0,0,1,1.2,4.18v37.8q0,6.33-5.23,6.33a6.81,6.81,0,0,1-2.37-.39,5.63,5.63,0,0,1-2-1.18,11.64,11.64,0,0,1-1.71-1.93c-.52-.72-1-1.47-1.57-2.24l-18.26-28V353a6,6,0,0,1-1.28,4.17,4.25,4.25,0,0,1-3.29,1.41,4.19,4.19,0,0,1-3.31-1.43,6.07,6.07,0,0,1-1.25-4.15V316a10.86,10.86,0,0,1,.52-3.71,5.33,5.33,0,0,1,2.07-2.41,5.62,5.62,0,0,1,3.11-.93,5.07,5.07,0,0,1,3.9,1.58,10.83,10.83,0,0,1,1.44,1.87C676.27,313.19,676.78,313.93,677.31,314.77Z"/><path class="cls-2" d="M634.68,317.26H612.75v11.82h20.16a4.79,4.79,0,0,1,3.32,1,3.36,3.36,0,0,1,1.1,2.63,3.57,3.57,0,0,1-1.07,2.67,4.76,4.76,0,0,1-3.35,1h-20.2v13.7h22.68a5,5,0,0,1,3.52,1.11,3.61,3.61,0,0,1,1.18,2.83,3.56,3.56,0,0,1-1.18,2.77,5,5,0,0,1-3.46,1.06H609q-3.16,0-4.56-1.41c-.93-.94-1.4-2.46-1.4-4.56V315.7a8.25,8.25,0,0,1,.62-3.43,3.9,3.9,0,0,1,2-1.93,8.19,8.19,0,0,1,3.39-.61h25.71a5,5,0,0,1,3.46,1,3.87,3.87,0,0,1,0,5.47A5,5,0,0,1,634.68,317.26Z"/><path class="cls-2" d="M546.52,350.57l-7.72-30.63v33.18a6,6,0,0,1-1.23,4.13,4.48,4.48,0,0,1-6.33.13l-.13-.13a6,6,0,0,1-1.24-4.14v-38c0-2.1.55-3.51,1.64-4.25a7.87,7.87,0,0,1,4.42-1.1h3a11.19,11.19,0,0,1,3.94.5,3.27,3.27,0,0,1,1.82,1.76,27.78,27.78,0,0,1,1.35,4.17l7,26.35,7-26.35a27.74,27.74,0,0,1,1.34-4.17,3.23,3.23,0,0,1,1.81-1.76,11.52,11.52,0,0,1,4-.5h3a7.94,7.94,0,0,1,4.44,1.1c1.08.74,1.63,2.15,1.63,4.25v38a6,6,0,0,1-1.23,4.13,4.17,4.17,0,0,1-3.28,1.38,4.1,4.1,0,0,1-3.18-1.38,6,6,0,0,1-1.24-4.13V319.94l-7.71,30.63c-.51,2-.91,3.44-1.23,4.37a6.11,6.11,0,0,1-1.75,2.53,5.73,5.73,0,0,1-8.27-1.46,10.5,10.5,0,0,1-1-2.54A29.5,29.5,0,0,1,546.52,350.57Z"/><path class="cls-2" d="M500.37,317.26H478.43v11.82h20.2a4.86,4.86,0,0,1,3.33,1,3.4,3.4,0,0,1,1.09,2.63,3.57,3.57,0,0,1-1.07,2.67,4.76,4.76,0,0,1-3.35,1h-20.2v13.7h22.69a4.89,4.89,0,0,1,3.45,1.06,3.61,3.61,0,0,1,1.18,2.83,3.56,3.56,0,0,1-1.18,2.77,5,5,0,0,1-3.45,1.06H474.66c-2.12,0-3.64-.47-4.57-1.41s-1.4-2.46-1.4-4.56V315.7a8,8,0,0,1,.63-3.43,3.84,3.84,0,0,1,1.94-1.93,8.27,8.27,0,0,1,3.4-.61h25.71a5,5,0,0,1,3.45,1,3.56,3.56,0,0,1,1.14,2.71,3.6,3.6,0,0,1-1.14,2.76A5,5,0,0,1,500.37,317.26Z"/><path class="cls-2" d="M412.2,350.57l-7.71-30.63v33.18a6,6,0,0,1-1.24,4.13,4.47,4.47,0,0,1-6.32.13l-.13-.13a6,6,0,0,1-1.25-4.14v-38c0-2.1.55-3.51,1.64-4.25a7.87,7.87,0,0,1,4.42-1.1h3a11.19,11.19,0,0,1,3.94.5,3.29,3.29,0,0,1,1.83,1.76,28.93,28.93,0,0,1,1.34,4.17l7,26.35,7-26.35a27.74,27.74,0,0,1,1.34-4.17,3.29,3.29,0,0,1,1.85-1.83,11.52,11.52,0,0,1,4-.5h3a7.93,7.93,0,0,1,4.43,1.1c1.08.74,1.63,2.15,1.63,4.25v38a6,6,0,0,1-1.23,4.13,4.17,4.17,0,0,1-3.28,1.38,4.1,4.1,0,0,1-3.18-1.38A6,6,0,0,1,433,353v-33.1l-7.71,30.63c-.5,2-.91,3.44-1.23,4.37a6.11,6.11,0,0,1-1.75,2.53,5.14,5.14,0,0,1-3.55,1.16,5.3,5.3,0,0,1-2.88-.74,5.43,5.43,0,0,1-1.84-1.88,11.1,11.1,0,0,1-1-2.54A23.17,23.17,0,0,1,412.2,350.57Z"/><path class="cls-2" d="M335.49,309.73h12.69a34.24,34.24,0,0,1,8.5.92,15.75,15.75,0,0,1,6.44,3.45q7.5,6.43,7.51,19.55a38.84,38.84,0,0,1-.75,7.91,23.77,23.77,0,0,1-2.33,6.44,19.77,19.77,0,0,1-4,5.14,17,17,0,0,1-4.23,2.78,18.88,18.88,0,0,1-4.94,1.47,38.89,38.89,0,0,1-6,.43H335.69a8,8,0,0,1-4-.81,3.67,3.67,0,0,1-1.74-2.26,14.19,14.19,0,0,1-.42-3.78V315.7a6.33,6.33,0,0,1,1.38-4.51q1.43-1.41,4.56-1.41Zm3.77,7.73V350.1h7.39a28.82,28.82,0,0,0,3.81-.14,12.15,12.15,0,0,0,2.85-.65,8.12,8.12,0,0,0,2.55-1.47q4.89-4.14,4.89-14.24,0-7.12-2.15-10.67a9.63,9.63,0,0,0-5.29-4.51,26.44,26.44,0,0,0-7.61-1Z"/><path class="cls-2" d="M268,346.59l24.7-29.54H271.5a5,5,0,0,1-3.36-1,3.28,3.28,0,0,1-1.13-2.6,3.47,3.47,0,0,1,1.13-2.71,4.84,4.84,0,0,1,3.36-1h27.41c3.53,0,5.3,1.66,5.3,5a7,7,0,0,1-.88,3.77,49.2,49.2,0,0,1-3.57,4.57l-23.1,27.47h25.46a5.13,5.13,0,0,1,3.37.94,3.18,3.18,0,0,1,1.12,2.61,3.52,3.52,0,0,1-1.12,2.75,4.86,4.86,0,0,1-3.37,1H270.84a7,7,0,0,1-4.78-1.43,4.83,4.83,0,0,1-1.61-3.82,4.32,4.32,0,0,1,.26-1.51,5.44,5.44,0,0,1,.7-1.3c.3-.4.71-.92,1.23-1.53Z"/><path class="cls-2" d="M235,352.37l-2.29-6H213.13l-2.3,6.15a21,21,0,0,1-2.29,4.87,3.66,3.66,0,0,1-3.11,1.27,4.56,4.56,0,0,1-3.25-1.35,4.13,4.13,0,0,1-1.41-3,7.15,7.15,0,0,1,.32-2c.23-.7.59-1.67,1.09-2.92l12.29-31.21c.36-.89.77-2,1.26-3.22a15.85,15.85,0,0,1,1.58-3.13,6.49,6.49,0,0,1,2.2-2,6.74,6.74,0,0,1,3.35-.77,6.86,6.86,0,0,1,3.41.77,6.77,6.77,0,0,1,2.19,2,13.82,13.82,0,0,1,1.45,2.46c.38.93.87,2.17,1.46,3.72l12.56,31a15.69,15.69,0,0,1,1.47,5.15,4.27,4.27,0,0,1-1.38,3.07,4.58,4.58,0,0,1-3.37,1.39,4.31,4.31,0,0,1-2-.42,4.13,4.13,0,0,1-1.38-1.11,10.58,10.58,0,0,1-1.19-2.16L235,352.36ZM215.69,339h14.36l-7.24-19.82Z"/><path class="cls-2" d="M160.41,352.69V337.45l-11.74-18.19a40.43,40.43,0,0,1-2.19-3.84,5.91,5.91,0,0,1-.64-2.4,3.83,3.83,0,0,1,1.3-2.88,4.53,4.53,0,0,1,3.2-1.21,3.94,3.94,0,0,1,3,1.13,34.49,34.49,0,0,1,3.09,4.5l9,14.58,9.09-14.58c.54-.9,1-1.65,1.38-2.26a12.23,12.23,0,0,1,1.23-1.72,5.06,5.06,0,0,1,1.49-1.23,4.31,4.31,0,0,1,2-.42,4.22,4.22,0,0,1,3.06,1.2,3.72,3.72,0,0,1,1.23,2.76,6,6,0,0,1-.61,2.56,35.41,35.41,0,0,1-2.14,3.54l-12,18.46v15.24a6.31,6.31,0,0,1-1.37,4.46,4.93,4.93,0,0,1-7,0l0,0A6.36,6.36,0,0,1,160.41,352.69Z"/></g><g class="cls-1"><rect x="368.03" y="117.91" width="50.56" height="73.42"/><path class="cls-2" d="M418.59,185.26a84.2,84.2,0,0,1-168.39,0h50.35a33.85,33.85,0,0,0,67.7.05v-.05Z"/><path class="cls-2" d="M300.55,185.26a84.2,84.2,0,0,1-168.39,0H182.5a33.85,33.85,0,1,0,67.7,0Z"/><rect x="250.15" y="117.91" width="50.4" height="73.42"/><polygon class="cls-2" points="19.45 311.69 122.1 209.04 157.85 244.79 90.95 311.69 19.45 311.69"/><path class="cls-2" d="M98.31,101.07a84.19,84.19,0,1,1-84.19,84.19h0A84.19,84.19,0,0,1,98.31,101.07Zm0,50.34a33.85,33.85,0,1,0,33.85,33.85h0a33.86,33.86,0,0,0-33.85-33.85Z"/><polygon class="cls-2" points="0 331.13 102.65 228.48 138.4 264.23 71.5 331.13 0 331.13"/><path class="cls-2" d="M645.61,244.79h0a85.35,85.35,0,0,1-7.89,6.82L636,253h0a84.2,84.2,0,0,1-117.54-19.09c-.64-.88-1.26-1.78-1.86-2.69l37.53-37.54a33.86,33.86,0,1,0,9-33.15h0l-.07.07a12.77,12.77,0,0,0-.93,1l-4.44,4.56.31.31-84.54,85.23-.12-.1A61.78,61.78,0,0,1,368,207.62V185.26h50.56v22.36a11.37,11.37,0,0,0,11.32,11.27,11.23,11.23,0,0,0,7-2.51c27.14-27.33,73-73.37,85.23-85.79h0a84.2,84.2,0,0,1,142.68,22.6q11.08-11.3,22.22-22.6h0a84.17,84.17,0,1,1-5.6,100.54L719,193.59a33.85,33.85,0,1,0,8.94-33.15h0l-.07.07a12.77,12.77,0,0,0-.93,1l-4.44,4.56.31.31Z"/></g><rect class="cls-3" x="925.09" y="37.23" width="249.24" height="26.4" rx="5.84"/><path class="cls-4" d="M1096.38,255.31V89h-4.6a13.8,13.8,0,1,0-27.59-.74c0,.24,0,.49,0,.74h-4.59V255.31a5.84,5.84,0,0,0,5.83,5.84h25.11A5.86,5.86,0,0,0,1096.38,255.31Z"/><path class="cls-4" d="M1039.83,255.31V89h-4.59a13.8,13.8,0,1,0-27.59-.74c0,.24,0,.49,0,.74h-4.6V255.31a5.85,5.85,0,0,0,5.82,5.88H1034a5.85,5.85,0,0,0,5.82-5.88Z"/><path class="cls-4" d="M983.29,255.31V89h-4.6a13.8,13.8,0,1,0-27.59-.74c0,.25,0,.49,0,.74h-4.6V255.31a5.86,5.86,0,0,0,5.84,5.84h25.11A5.86,5.86,0,0,0,983.29,255.31Z"/><path class="cls-4" d="M1152.91,255.31V89h-4.59a13.8,13.8,0,1,0-27.59-.74c0,.24,0,.49,0,.74h-4.6V255.31a5.86,5.86,0,0,0,5.84,5.84h25.11A5.84,5.84,0,0,0,1152.91,255.31Z"/><rect class="cls-3" x="909.58" y="272.2" width="280.27" height="26.4" rx="5.84"/><path class="cls-4" d="M1175.4,360.94v-45.4a5.85,5.85,0,0,0-5.84-5.83H929.91a5.84,5.84,0,0,0-5.84,5.83v48.83a94.62,94.62,0,0,1,12.92-6,98.36,98.36,0,0,1,33.69-6.11c50.52-.77,89.77,20.13,129.11,6.93,5.58-1.88,18.62-6.93,35.8-6.93A95.3,95.3,0,0,1,1175.4,360.94Z"/><rect class="cls-3" x="909.58" width="280.27" height="26.4" rx="5.84"/></svg>